STARTFONT 2.1
COMMENT
COMMENT Converted from OpenType font "minisystem.ttf" by "otf2bdf 3.0".
COMMENT
FONT -FreeType-Minisystem-Medium-R-Normal--17-120-100-100-P-77-ISO10646-1
SIZE 12 100 100
FONTBOUNDINGBOX 21 21 0 -3
STARTPROPERTIES 19
FOUNDRY "FreeType"
FAMILY_NAME "Minisystem"
WEIGHT_NAME "Medium"
SLANT "R"
SETWIDTH_NAME "Normal"
ADD_STYLE_NAME ""
PIXEL_SIZE 17
POINT_SIZE 120
RESOLUTION_X 100
RESOLUTION_Y 100
SPACING "P"
AVERAGE_WIDTH 77
CHARSET_REGISTRY "ISO10646"
CHARSET_ENCODING "1"
FONT_ASCENT 17
FONT_DESCENT 2
COPYRIGHT "(c) 2000 Ray Larabie. See attached license agreement for more information. If EULA is missing, visit www.larabiefonts.com for an updated version of this font."
_OTF_FONTFILE "minisystem.ttf"
_OTF_PSNAME "Minisystem-Regular"
ENDPROPERTIES
CHARS 192
STARTCHAR 0020
ENCODING 32
SWIDTH 660 0
DWIDTH 11 0
BBX 0 0 0 0
BITMAP
ENDCHAR
STARTCHAR 0021
ENCODING 33
SWIDTH 660 0
DWIDTH 11 0
BBX 2 12 5 0
BITMAP
40
00
00
00
80
80
80
80
00
00
00
80
ENDCHAR
STARTCHAR 0022
ENCODING 34
SWIDTH 660 0
DWIDTH 11 0
BBX 6 5 2 8
BITMAP
80
00
80
84
84
ENDCHAR
STARTCHAR 0024
ENCODING 36
SWIDTH 660 0
DWIDTH 11 0
BBX 8 13 2 0
BITMAP
4E
80
80
00
90
90
78
11
10
00
10
12
DC
ENDCHAR
STARTCHAR 0025
ENCODING 37
SWIDTH 660 0
DWIDTH 11 0
BBX 7 11 2 1
BITMAP
82
00
00
04
00
00
20
00
40
40
82
ENDCHAR
STARTCHAR 0026
ENCODING 38
SWIDTH 660 0
DWIDTH 11 0
BBX 9 13 1 0
BITMAP
0F00
4100
4100
0000
4200
4200
3000
4080
0280
0000
0280
8280
1E00
ENDCHAR
STARTCHAR 0027
ENCODING 39
SWIDTH 660 0
DWIDTH 11 0
BBX 1 5 5 8
BITMAP
80
00
80
80
80
ENDCHAR
STARTCHAR 0028
ENCODING 40
SWIDTH 660 0
DWIDTH 11 0
BBX 3 11 4 1
BITMAP
20
00
00
40
00
00
80
00
00
40
40
ENDCHAR
STARTCHAR 0029
ENCODING 41
SWIDTH 660 0
DWIDTH 11 0
BBX 3 11 4 1
BITMAP
40
00
00
20
20
00
20
00
40
40
80
ENDCHAR
STARTCHAR 002A
ENCODING 42
SWIDTH 660 0
DWIDTH 11 0
BBX 7 11 2 1
BITMAP
42
00
00
34
30
78
38
00
50
54
94
ENDCHAR
STARTCHAR 002B
ENCODING 43
SWIDTH 660 0
DWIDTH 11 0
BBX 4 8 3 4
BITMAP
20
20
F0
20
00
20
20
20
ENDCHAR
STARTCHAR 002C
ENCODING 44
SWIDTH 660 0
DWIDTH 11 0
BBX 1 3 5 -1
BITMAP
80
80
80
ENDCHAR
STARTCHAR 002D
ENCODING 45
SWIDTH 660 0
DWIDTH 11 0
BBX 4 1 3 6
BITMAP
F0
ENDCHAR
STARTCHAR 002E
ENCODING 46
SWIDTH 660 0
DWIDTH 11 0
BBX 1 1 5 -1
BITMAP
80
ENDCHAR
STARTCHAR 002F
ENCODING 47
SWIDTH 660 0
DWIDTH 11 0
BBX 7 11 2 1
BITMAP
02
00
00
04
00
00
20
00
40
40
80
ENDCHAR
STARTCHAR 0030
ENCODING 48
SWIDTH 660 0
DWIDTH 11 0
BBX 9 13 1 0
BITMAP
2700
4080
4080
0000
4080
4080
0000
0080
8000
0000
8000
8100
6E00
ENDCHAR
STARTCHAR 0031
ENCODING 49
SWIDTH 660 0
DWIDTH 11 0
BBX 1 8 5 4
BITMAP
80
80
00
80
00
80
80
80
ENDCHAR
STARTCHAR 0032
ENCODING 50
SWIDTH 660 0
DWIDTH 11 0
BBX 9 13 1 0
BITMAP
2700
0080
0080
0000
0080
0080
3C00
0000
8000
0000
8000
8000
6E00
ENDCHAR
STARTCHAR 0033
ENCODING 51
SWIDTH 660 0
DWIDTH 11 0
BBX 8 13 2 0
BITMAP
78
01
00
00
00
02
CC
02
02
00
02
02
F0
ENDCHAR
STARTCHAR 0034
ENCODING 52
SWIDTH 660 0
DWIDTH 11 0
BBX 9 11 1 1
BITMAP
4080
0080
0000
0080
8080
1E00
0100
0000
0100
0100
0100
ENDCHAR
STARTCHAR 0035
ENCODING 53
SWIDTH 660 0
DWIDTH 11 0
BBX 8 13 2 0
BITMAP
4E
80
80
00
80
80
78
01
00
00
00
02
DC
ENDCHAR
STARTCHAR 0036
ENCODING 54
SWIDTH 660 0
DWIDTH 11 0
BBX 9 13 1 0
BITMAP
0F00
4000
4000
0000
4000
4000
3300
4080
0080
0000
0080
8080
1E00
ENDCHAR
STARTCHAR 0037
ENCODING 55
SWIDTH 660 0
DWIDTH 11 0
BBX 7 12 2 1
BITMAP
CC
02
02
00
02
02
00
00
00
00
04
04
ENDCHAR
STARTCHAR 0038
ENCODING 56
SWIDTH 660 0
DWIDTH 11 0
BBX 9 13 1 0
BITMAP
2700
4080
4080
0000
4080
4080
3C00
0080
8000
0000
8000
8100
6E00
ENDCHAR
STARTCHAR 0039
ENCODING 57
SWIDTH 660 0
DWIDTH 11 0
BBX 9 13 1 0
BITMAP
3300
4080
0080
0000
0080
8080
1E00
0100
0100
0000
0100
0100
7200
ENDCHAR
STARTCHAR 003A
ENCODING 58
SWIDTH 660 0
DWIDTH 11 0
BBX 1 1 5 8
BITMAP
80
ENDCHAR
STARTCHAR 003B
ENCODING 59
SWIDTH 660 0
DWIDTH 11 0
BBX 1 2 5 7
BITMAP
80
80
ENDCHAR
STARTCHAR 003C
ENCODING 60
SWIDTH 660 0
DWIDTH 11 0
BBX 3 11 4 1
BITMAP
20
00
00
40
00
00
80
00
00
40
40
ENDCHAR
STARTCHAR 003D
ENCODING 61
SWIDTH 660 0
DWIDTH 11 0
BBX 6 7 3 2
BITMAP
CC
00
00
00
00
00
78
ENDCHAR
STARTCHAR 003E
ENCODING 62
SWIDTH 660 0
DWIDTH 11 0
BBX 3 11 4 1
BITMAP
40
00
00
20
20
00
20
00
40
40
80
ENDCHAR
STARTCHAR 003F
ENCODING 63
SWIDTH 660 0
DWIDTH 11 0
BBX 9 13 1 0
BITMAP
2700
0080
0080
0000
0080
0080
3900
0000
8000
0000
8000
0000
8000
ENDCHAR
STARTCHAR 0041
ENCODING 65
SWIDTH 660 0
DWIDTH 11 0
BBX 9 12 1 1
BITMAP
2700
4080
4080
0000
4080
4080
3C00
0080
8000
0000
8000
8100
ENDCHAR
STARTCHAR 0042
ENCODING 66
SWIDTH 660 0
DWIDTH 11 0
BBX 8 13 2 0
BITMAP
78
11
10
00
10
12
0C
02
22
00
22
22
F0
ENDCHAR
STARTCHAR 0043
ENCODING 67
SWIDTH 660 0
DWIDTH 11 0
BBX 8 13 2 0
BITMAP
39
00
80
00
80
80
00
80
80
00
80
80
78
ENDCHAR
STARTCHAR 0044
ENCODING 68
SWIDTH 660 0
DWIDTH 11 0
BBX 8 13 2 0
BITMAP
78
11
10
00
10
12
00
02
22
00
22
22
F0
ENDCHAR
STARTCHAR 0045
ENCODING 69
SWIDTH 660 0
DWIDTH 11 0
BBX 8 13 2 0
BITMAP
39
00
80
00
80
80
4E
80
80
00
80
80
78
ENDCHAR
STARTCHAR 0046
ENCODING 70
SWIDTH 660 0
DWIDTH 11 0
BBX 8 12 2 1
BITMAP
39
00
80
00
80
80
4E
80
80
00
80
80
ENDCHAR
STARTCHAR 0047
ENCODING 71
SWIDTH 660 0
DWIDTH 11 0
BBX 8 13 2 0
BITMAP
39
00
80
00
80
80
00
84
84
00
84
82
78
ENDCHAR
STARTCHAR 0048
ENCODING 72
SWIDTH 660 0
DWIDTH 11 0
BBX 9 11 1 1
BITMAP
4080
4080
0000
4080
4080
3C00
0080
0000
8000
8000
8100
ENDCHAR
STARTCHAR 0049
ENCODING 73
SWIDTH 660 0
DWIDTH 11 0
BBX 7 13 2 0
BITMAP
4E
00
00
00
10
10
10
10
10
00
10
10
9C
ENDCHAR
STARTCHAR 004A
ENCODING 74
SWIDTH 660 0
DWIDTH 11 0
BBX 9 12 1 0
BITMAP
0080
0080
0000
0080
0080
0000
0080
8000
0000
8000
8100
6E00
ENDCHAR
STARTCHAR 004B
ENCODING 75
SWIDTH 660 0
DWIDTH 11 0
BBX 9 11 1 1
BITMAP
4100
4100
0000
4200
4200
3300
4080
0000
0080
0080
8080
ENDCHAR
STARTCHAR 004C
ENCODING 76
SWIDTH 660 0
DWIDTH 11 0
BBX 7 12 2 0
BITMAP
40
40
00
40
40
00
00
80
00
80
80
4E
ENDCHAR
STARTCHAR 004D
ENCODING 77
SWIDTH 660 0
DWIDTH 11 0
BBX 9 11 1 1
BITMAP
6180
4080
0000
5280
5080
0000
0080
0000
8000
8000
8100
ENDCHAR
STARTCHAR 004E
ENCODING 78
SWIDTH 660 0
DWIDTH 11 0
BBX 9 11 1 1
BITMAP
6080
4080
0000
5080
5080
0000
0480
0000
8000
8200
8300
ENDCHAR
STARTCHAR 004F
ENCODING 79
SWIDTH 660 0
DWIDTH 11 0
BBX 9 13 1 0
BITMAP
2700
4080
4080
0000
4080
4080
0000
0080
8000
0000
8000
8100
6E00
ENDCHAR
STARTCHAR 0050
ENCODING 80
SWIDTH 660 0
DWIDTH 11 0
BBX 9 12 1 1
BITMAP
2700
4080
4080
0000
4080
4080
3C00
0000
8000
0000
8000
8000
ENDCHAR
STARTCHAR 0051
ENCODING 81
SWIDTH 660 0
DWIDTH 11 0
BBX 9 13 1 0
BITMAP
2700
4080
4080
0000
4080
4080
0000
0480
8000
0000
8200
8300
6E00
ENDCHAR
STARTCHAR 0052
ENCODING 82
SWIDTH 660 0
DWIDTH 11 0
BBX 9 12 1 1
BITMAP
2700
4080
4080
0000
4080
4080
3C00
0400
8000
0000
8200
8200
ENDCHAR
STARTCHAR 0053
ENCODING 83
SWIDTH 660 0
DWIDTH 11 0
BBX 8 13 2 0
BITMAP
4E
80
80
00
80
80
78
01
00
00
00
02
DC
ENDCHAR
STARTCHAR 0054
ENCODING 84
SWIDTH 660 0
DWIDTH 11 0
BBX 4 12 3 1
BITMAP
F0
20
20
00
20
20
00
00
00
00
40
40
ENDCHAR
STARTCHAR 0055
ENCODING 85
SWIDTH 660 0
DWIDTH 11 0
BBX 9 12 1 0
BITMAP
4080
4080
0000
4080
4080
0000
0080
8000
0000
8000
8100
6E00
ENDCHAR
STARTCHAR 0056
ENCODING 86
SWIDTH 660 0
DWIDTH 11 0
BBX 7 10 2 2
BITMAP
02
00
80
84
00
80
00
A0
80
C0
ENDCHAR
STARTCHAR 0057
ENCODING 87
SWIDTH 660 0
DWIDTH 11 0
BBX 9 11 1 1
BITMAP
4080
4080
0000
4080
4080
0000
1480
0000
A000
A200
C300
ENDCHAR
STARTCHAR 0058
ENCODING 88
SWIDTH 660 0
DWIDTH 11 0
BBX 7 11 2 1
BITMAP
42
00
00
24
20
00
28
00
40
44
84
ENDCHAR
STARTCHAR 0059
ENCODING 89
SWIDTH 660 0
DWIDTH 11 0
BBX 9 12 1 0
BITMAP
4080
0080
0000
0080
8080
1E00
0100
0100
0000
0100
0100
7200
ENDCHAR
STARTCHAR 005A
ENCODING 90
SWIDTH 660 0
DWIDTH 11 0
BBX 7 13 2 0
BITMAP
4E
02
00
00
04
00
00
20
40
00
40
80
9C
ENDCHAR
STARTCHAR 005B
ENCODING 91
SWIDTH 660 0
DWIDTH 11 0
BBX 6 13 1 0
BITMAP
24
40
40
00
40
40
00
00
80
00
80
80
68
ENDCHAR
STARTCHAR 005C
ENCODING 92
SWIDTH 660 0
DWIDTH 11 0
BBX 5 11 3 1
BITMAP
80
00
00
40
40
00
10
00
00
08
08
ENDCHAR
STARTCHAR 005D
ENCODING 93
SWIDTH 660 0
DWIDTH 11 0
BBX 5 13 5 0
BITMAP
70
08
08
00
08
08
00
08
00
00
00
10
E0
ENDCHAR
STARTCHAR 005E
ENCODING 94
SWIDTH 660 0
DWIDTH 11 0
BBX 3 2 4 13
BITMAP
40
A0
ENDCHAR
STARTCHAR 005F
ENCODING 95
SWIDTH 660 0
DWIDTH 11 0
BBX 4 1 4 -2
BITMAP
F0
ENDCHAR
STARTCHAR 0060
ENCODING 96
SWIDTH 660 0
DWIDTH 11 0
BBX 1 1 5 14
BITMAP
80
ENDCHAR
STARTCHAR 0061
ENCODING 97
SWIDTH 660 0
DWIDTH 11 0
BBX 9 12 1 1
BITMAP
2700
4080
4080
0000
4080
4080
3C00
0080
8000
0000
8000
8100
ENDCHAR
STARTCHAR 0062
ENCODING 98
SWIDTH 660 0
DWIDTH 11 0
BBX 8 13 2 0
BITMAP
78
11
10
00
10
12
0C
02
22
00
22
22
F0
ENDCHAR
STARTCHAR 0063
ENCODING 99
SWIDTH 660 0
DWIDTH 11 0
BBX 8 13 2 0
BITMAP
39
00
80
00
80
80
00
80
80
00
80
80
78
ENDCHAR
STARTCHAR 0064
ENCODING 100
SWIDTH 660 0
DWIDTH 11 0
BBX 8 13 2 0
BITMAP
78
11
10
00
10
12
00
02
22
00
22
22
F0
ENDCHAR
STARTCHAR 0065
ENCODING 101
SWIDTH 660 0
DWIDTH 11 0
BBX 8 13 2 0
BITMAP
39
00
80
00
80
80
4E
80
80
00
80
80
78
ENDCHAR
STARTCHAR 0066
ENCODING 102
SWIDTH 660 0
DWIDTH 11 0
BBX 8 12 2 1
BITMAP
39
00
80
00
80
80
4E
80
80
00
80
80
ENDCHAR
STARTCHAR 0067
ENCODING 103
SWIDTH 660 0
DWIDTH 11 0
BBX 8 13 2 0
BITMAP
39
00
80
00
80
80
00
84
84
00
84
82
78
ENDCHAR
STARTCHAR 0068
ENCODING 104
SWIDTH 660 0
DWIDTH 11 0
BBX 9 11 1 1
BITMAP
4080
4080
0000
4080
4080
3C00
0080
0000
8000
8000
8100
ENDCHAR
STARTCHAR 0069
ENCODING 105
SWIDTH 660 0
DWIDTH 11 0
BBX 7 13 2 0
BITMAP
4E
00
00
00
10
10
10
10
10
00
10
10
9C
ENDCHAR
STARTCHAR 006A
ENCODING 106
SWIDTH 660 0
DWIDTH 11 0
BBX 9 12 1 0
BITMAP
0080
0080
0000
0080
0080
0000
0080
8000
0000
8000
8100
6E00
ENDCHAR
STARTCHAR 006B
ENCODING 107
SWIDTH 660 0
DWIDTH 11 0
BBX 9 11 1 1
BITMAP
4100
4100
0000
4200
4200
3300
4080
0000
0080
0080
8080
ENDCHAR
STARTCHAR 006C
ENCODING 108
SWIDTH 660 0
DWIDTH 11 0
BBX 7 12 2 0
BITMAP
40
40
00
40
40
00
00
80
00
80
80
4E
ENDCHAR
STARTCHAR 006D
ENCODING 109
SWIDTH 660 0
DWIDTH 11 0
BBX 9 11 1 1
BITMAP
6180
4080
0000
5280
5080
0000
0080
0000
8000
8000
8100
ENDCHAR
STARTCHAR 006E
ENCODING 110
SWIDTH 660 0
DWIDTH 11 0
BBX 9 11 1 1
BITMAP
6080
4080
0000
5080
5080
0000
0480
0000
8000
8200
8300
ENDCHAR
STARTCHAR 006F
ENCODING 111
SWIDTH 660 0
DWIDTH 11 0
BBX 9 13 1 0
BITMAP
2700
4080
4080
0000
4080
4080
0000
0080
8000
0000
8000
8100
6E00
ENDCHAR
STARTCHAR 0070
ENCODING 112
SWIDTH 660 0
DWIDTH 11 0
BBX 9 12 1 1
BITMAP
2700
4080
4080
0000
4080
4080
3C00
0000
8000
0000
8000
8000
ENDCHAR
STARTCHAR 0071
ENCODING 113
SWIDTH 660 0
DWIDTH 11 0
BBX 9 13 1 0
BITMAP
2700
4080
4080
0000
4080
4080
0000
0480
8000
0000
8200
8300
6E00
ENDCHAR
STARTCHAR 0072
ENCODING 114
SWIDTH 660 0
DWIDTH 11 0
BBX 9 12 1 1
BITMAP
2700
4080
4080
0000
4080
4080
3C00
0400
8000
0000
8200
8200
ENDCHAR
STARTCHAR 0073
ENCODING 115
SWIDTH 660 0
DWIDTH 11 0
BBX 8 13 2 0
BITMAP
4E
80
80
00
80
80
78
01
00
00
00
02
DC
ENDCHAR
STARTCHAR 0074
ENCODING 116
SWIDTH 660 0
DWIDTH 11 0
BBX 4 12 3 1
BITMAP
F0
20
20
00
20
20
00
00
00
00
40
40
ENDCHAR
STARTCHAR 0075
ENCODING 117
SWIDTH 660 0
DWIDTH 11 0
BBX 9 12 1 0
BITMAP
4080
4080
0000
4080
4080
0000
0080
8000
0000
8000
8100
6E00
ENDCHAR
STARTCHAR 0076
ENCODING 118
SWIDTH 660 0
DWIDTH 11 0
BBX 7 10 2 2
BITMAP
02
00
80
84
00
80
00
A0
80
C0
ENDCHAR
STARTCHAR 0077
ENCODING 119
SWIDTH 660 0
DWIDTH 11 0
BBX 9 11 1 1
BITMAP
4080
4080
0000
4080
4080
0000
1480
0000
A000
A200
C300
ENDCHAR
STARTCHAR 0078
ENCODING 120
SWIDTH 660 0
DWIDTH 11 0
BBX 7 11 2 1
BITMAP
42
00
00
24
20
00
28
00
40
44
84
ENDCHAR
STARTCHAR 0079
ENCODING 121
SWIDTH 660 0
DWIDTH 11 0
BBX 9 12 1 0
BITMAP
4080
0080
0000
0080
8080
1E00
0100
0100
0000
0100
0100
7200
ENDCHAR
STARTCHAR 007A
ENCODING 122
SWIDTH 660 0
DWIDTH 11 0
BBX 7 13 2 0
BITMAP
4E
02
00
00
04
00
00
20
40
00
40
80
9C
ENDCHAR
STARTCHAR 007B
ENCODING 123
SWIDTH 660 0
DWIDTH 11 0
BBX 3 13 4 0
BITMAP
20
00
40
00
00
80
00
80
80
00
00
40
40
ENDCHAR
STARTCHAR 007C
ENCODING 124
SWIDTH 660 0
DWIDTH 11 0
BBX 2 12 5 0
BITMAP
40
00
00
00
80
80
80
80
00
80
80
80
ENDCHAR
STARTCHAR 007D
ENCODING 125
SWIDTH 660 0
DWIDTH 11 0
BBX 3 13 4 0
BITMAP
40
40
00
00
20
20
00
20
40
00
40
80
80
ENDCHAR
STARTCHAR 00A1
ENCODING 161
SWIDTH 660 0
DWIDTH 11 0
BBX 2 12 5 0
BITMAP
40
00
00
00
00
00
80
80
00
80
80
80
ENDCHAR
STARTCHAR 00A5
ENCODING 165
SWIDTH 660 0
DWIDTH 11 0
BBX 7 11 2 1
BITMAP
42
00
00
24
20
00
78
00
10
BC
10
ENDCHAR
STARTCHAR 00A8
ENCODING 168
SWIDTH 660 0
DWIDTH 11 0
BBX 3 1 4 16
BITMAP
A0
ENDCHAR
STARTCHAR 00A9
ENCODING 169
SWIDTH 660 0
DWIDTH 11 0
BBX 9 13 1 0
BITMAP
2700
4080
4280
5080
0000
5080
1000
1080
9000
0000
8C00
8100
6E00
ENDCHAR
STARTCHAR 00AB
ENCODING 171
SWIDTH 1380 0
DWIDTH 23 0
BBX 14 11 4 1
BITMAP
2004
0004
0000
4008
0008
0000
8000
0000
0008
4008
4000
ENDCHAR
STARTCHAR 00AE
ENCODING 174
SWIDTH 660 0
DWIDTH 11 0
BBX 9 13 1 0
BITMAP
2700
4080
5080
5080
0000
5080
1800
1480
9400
0000
8400
8100
6E00
ENDCHAR
STARTCHAR 00B4
ENCODING 180
SWIDTH 660 0
DWIDTH 11 0
BBX 1 1 6 14
BITMAP
80
ENDCHAR
STARTCHAR 00B8
ENCODING 184
SWIDTH 660 0
DWIDTH 11 0
BBX 1 1 6 -3
BITMAP
80
ENDCHAR
STARTCHAR 00BB
ENCODING 187
SWIDTH 1380 0
DWIDTH 23 0
BBX 14 11 4 1
BITMAP
4008
0004
0000
2004
2004
0000
2004
0000
4000
4008
8000
ENDCHAR
STARTCHAR 00BF
ENCODING 191
SWIDTH 660 0
DWIDTH 11 0
BBX 9 10 1 2
BITMAP
0080
0080
0080
3900
4000
0000
0000
0000
8000
1E00
ENDCHAR
STARTCHAR 00C0
ENCODING 192
SWIDTH 660 0
DWIDTH 11 0
BBX 9 16 1 1
BITMAP
0800
0000
0400
0000
2700
4080
4080
0000
4080
4080
3C00
0080
8000
0000
8000
8100
ENDCHAR
STARTCHAR 00C1
ENCODING 193
SWIDTH 660 0
DWIDTH 11 0
BBX 9 16 1 1
BITMAP
0200
0000
0400
0000
2700
4080
4080
0000
4080
4080
3C00
0080
8000
0000
8000
8100
ENDCHAR
STARTCHAR 00C2
ENCODING 194
SWIDTH 660 0
DWIDTH 11 0
BBX 9 16 1 1
BITMAP
0400
0000
0A00
0000
2700
4080
4080
0000
4080
4080
3C00
0080
8000
0000
8000
8100
ENDCHAR
STARTCHAR 00C3
ENCODING 195
SWIDTH 660 0
DWIDTH 11 0
BBX 9 16 1 1
BITMAP
0500
0000
0A00
0000
2700
4080
4080
0000
4080
4080
3C00
0080
8000
0000
8000
8100
ENDCHAR
STARTCHAR 00C4
ENCODING 196
SWIDTH 660 0
DWIDTH 11 0
BBX 9 16 1 1
BITMAP
0A00
0000
0000
0000
2700
4080
4080
0000
4080
4080
3C00
0080
8000
0000
8000
8100
ENDCHAR
STARTCHAR 00C5
ENCODING 197
SWIDTH 660 0
DWIDTH 11 0
BBX 9 17 1 1
BITMAP
0400
0A00
0000
0400
0000
2700
4080
4080
0000
4080
4080
3C00
0080
8000
0000
8000
8100
ENDCHAR
STARTCHAR 00C6
ENCODING 198
SWIDTH 660 0
DWIDTH 11 0
BBX 10 13 0 0
BITMAP
2580
4200
4200
0000
4000
4000
38C0
8400
8400
0000
8400
8400
0300
ENDCHAR
STARTCHAR 00C7
ENCODING 199
SWIDTH 660 0
DWIDTH 11 0
BBX 8 16 2 -3
BITMAP
39
00
80
00
80
80
00
80
80
00
80
80
78
00
10
20
ENDCHAR
STARTCHAR 00C8
ENCODING 200
SWIDTH 660 0
DWIDTH 11 0
BBX 8 13 2 4
BITMAP
39
00
80
00
80
80
4E
80
80
00
80
80
78
ENDCHAR
STARTCHAR 00C9
ENCODING 201
SWIDTH 660 0
DWIDTH 11 0
BBX 8 17 2 0
BITMAP
02
00
00
00
39
00
80
00
80
80
4E
80
80
00
80
80
78
ENDCHAR
STARTCHAR 00CA
ENCODING 202
SWIDTH 660 0
DWIDTH 11 0
BBX 8 15 2 2
BITMAP
14
00
39
00
80
00
80
80
4E
80
80
00
80
80
78
ENDCHAR
STARTCHAR 00CB
ENCODING 203
SWIDTH 660 0
DWIDTH 11 0
BBX 8 17 2 0
BITMAP
12
00
00
00
39
00
80
00
80
80
4E
80
80
00
80
80
78
ENDCHAR
STARTCHAR 00CC
ENCODING 204
SWIDTH 660 0
DWIDTH 11 0
BBX 7 17 2 0
BITMAP
10
00
08
00
4E
00
00
00
10
10
10
10
10
00
10
10
9C
ENDCHAR
STARTCHAR 00CD
ENCODING 205
SWIDTH 660 0
DWIDTH 11 0
BBX 7 17 2 0
BITMAP
04
00
08
00
4E
00
00
00
10
10
10
10
10
00
10
10
9C
ENDCHAR
STARTCHAR 00CE
ENCODING 206
SWIDTH 660 0
DWIDTH 11 0
BBX 7 17 2 0
BITMAP
08
00
14
00
4E
00
00
00
10
10
10
10
10
00
10
10
9C
ENDCHAR
STARTCHAR 00CF
ENCODING 207
SWIDTH 660 0
DWIDTH 11 0
BBX 7 17 2 0
BITMAP
14
00
00
00
4E
00
00
00
10
10
10
10
10
00
10
10
9C
ENDCHAR
STARTCHAR 00D0
ENCODING 208
SWIDTH 660 0
DWIDTH 11 0
BBX 8 13 2 0
BITMAP
78
11
10
00
10
9A
00
02
22
00
22
22
F0
ENDCHAR
STARTCHAR 00D1
ENCODING 209
SWIDTH 660 0
DWIDTH 11 0
BBX 9 16 1 1
BITMAP
0500
0000
0200
0000
0000
6080
4080
0000
5080
5080
0000
0480
0000
8000
8200
8300
ENDCHAR
STARTCHAR 00D2
ENCODING 210
SWIDTH 660 0
DWIDTH 11 0
BBX 9 17 1 0
BITMAP
0800
0000
0400
0000
2700
4080
4080
0000
4080
4080
0000
0080
8000
0000
8000
8100
6E00
ENDCHAR
STARTCHAR 00D3
ENCODING 211
SWIDTH 660 0
DWIDTH 11 0
BBX 9 17 1 0
BITMAP
0200
0000
0400
0000
2700
4080
4080
0000
4080
4080
0000
0080
8000
0000
8000
8100
6E00
ENDCHAR
STARTCHAR 00D4
ENCODING 212
SWIDTH 660 0
DWIDTH 11 0
BBX 9 17 1 0
BITMAP
0400
0000
0A00
0000
2700
4080
4080
0000
4080
4080
0000
0080
8000
0000
8000
8100
6E00
ENDCHAR
STARTCHAR 00D5
ENCODING 213
SWIDTH 660 0
DWIDTH 11 0
BBX 9 17 1 0
BITMAP
0500
0000
0A00
0000
2700
4080
4080
0000
4080
4080
0000
0080
8000
0000
8000
8100
6E00
ENDCHAR
STARTCHAR 00D6
ENCODING 214
SWIDTH 660 0
DWIDTH 11 0
BBX 9 17 1 0
BITMAP
0A00
0000
0000
0000
2700
4080
4080
0000
4080
4080
0000
0080
8000
0000
8000
8100
6E00
ENDCHAR
STARTCHAR 00D8
ENCODING 216
SWIDTH 660 0
DWIDTH 11 0
BBX 9 13 1 0
BITMAP
2700
4180
4080
0000
4280
4080
0000
1080
A000
0000
A000
C100
6E00
ENDCHAR
STARTCHAR 00D9
ENCODING 217
SWIDTH 660 0
DWIDTH 11 0
BBX 9 17 1 0
BITMAP
0800
0000
0400
0000
0000
4080
4080
0000
4080
4080
0000
0080
8000
0000
8000
8100
6E00
ENDCHAR
STARTCHAR 00DA
ENCODING 218
SWIDTH 660 0
DWIDTH 11 0
BBX 9 17 1 0
BITMAP
0200
0000
0400
0000
0000
4080
4080
0000
4080
4080
0000
0080
8000
0000
8000
8100
6E00
ENDCHAR
STARTCHAR 00DB
ENCODING 219
SWIDTH 660 0
DWIDTH 11 0
BBX 9 17 1 0
BITMAP
0400
0000
0A00
0000
0000
4080
4080
0000
4080
4080
0000
0080
8000
0000
8000
8100
6E00
ENDCHAR
STARTCHAR 00DC
ENCODING 220
SWIDTH 660 0
DWIDTH 11 0
BBX 9 17 1 0
BITMAP
0A00
0000
0000
0000
0000
4080
4080
0000
4080
4080
0000
0080
8000
0000
8000
8100
6E00
ENDCHAR
STARTCHAR 00DD
ENCODING 221
SWIDTH 660 0
DWIDTH 11 0
BBX 9 17 1 0
BITMAP
0200
0000
0400
0000
0000
4080
0080
0000
0080
8080
1E00
0100
0100
0000
0100
0100
7200
ENDCHAR
STARTCHAR 00DE
ENCODING 222
SWIDTH 660 0
DWIDTH 11 0
BBX 9 11 1 1
BITMAP
4000
7300
0000
4080
4080
0080
0080
0000
BC00
8000
8000
ENDCHAR
STARTCHAR 00DF
ENCODING 223
SWIDTH 1380 0
DWIDTH 23 0
BBX 19 13 2 0
BITMAP
4E03C0
801000
801000
000000
801000
801000
780CC0
010020
000020
000000
000020
020020
DC0780
ENDCHAR
STARTCHAR 00E0
ENCODING 224
SWIDTH 660 0
DWIDTH 11 0
BBX 9 16 1 1
BITMAP
0800
0000
0400
0000
2700
4080
4080
0000
4080
4080
3C00
0080
8000
0000
8000
8100
ENDCHAR
STARTCHAR 00E1
ENCODING 225
SWIDTH 660 0
DWIDTH 11 0
BBX 9 16 1 1
BITMAP
0200
0000
0400
0000
2700
4080
4080
0000
4080
4080
3C00
0080
8000
0000
8000
8100
ENDCHAR
STARTCHAR 00E2
ENCODING 226
SWIDTH 660 0
DWIDTH 11 0
BBX 9 16 1 1
BITMAP
0400
0000
0A00
0000
2700
4080
4080
0000
4080
4080
3C00
0080
8000
0000
8000
8100
ENDCHAR
STARTCHAR 00E3
ENCODING 227
SWIDTH 660 0
DWIDTH 11 0
BBX 9 16 1 1
BITMAP
0500
0000
0A00
0000
2700
4080
4080
0000
4080
4080
3C00
0080
8000
0000
8000
8100
ENDCHAR
STARTCHAR 00E4
ENCODING 228
SWIDTH 660 0
DWIDTH 11 0
BBX 9 16 1 1
BITMAP
0A00
0000
0000
0000
2700
4080
4080
0000
4080
4080
3C00
0080
8000
0000
8000
8100
ENDCHAR
STARTCHAR 00E5
ENCODING 229
SWIDTH 660 0
DWIDTH 11 0
BBX 9 17 1 1
BITMAP
0400
0A00
0000
0400
0000
2700
4080
4080
0000
4080
4080
3C00
0080
8000
0000
8000
8100
ENDCHAR
STARTCHAR 00E6
ENCODING 230
SWIDTH 660 0
DWIDTH 11 0
BBX 10 13 0 0
BITMAP
2580
4200
4200
0000
4000
4000
38C0
8400
8400
0000
8400
8400
0300
ENDCHAR
STARTCHAR 00E7
ENCODING 231
SWIDTH 660 0
DWIDTH 11 0
BBX 8 16 2 -3
BITMAP
39
00
80
00
80
80
00
80
80
00
80
80
78
00
10
20
ENDCHAR
STARTCHAR 00E8
ENCODING 232
SWIDTH 660 0
DWIDTH 11 0
BBX 8 13 2 4
BITMAP
39
00
80
00
80
80
4E
80
80
00
80
80
78
ENDCHAR
STARTCHAR 00E9
ENCODING 233
SWIDTH 660 0
DWIDTH 11 0
BBX 8 17 2 0
BITMAP
02
00
00
00
39
00
80
00
80
80
4E
80
80
00
80
80
78
ENDCHAR
STARTCHAR 00EA
ENCODING 234
SWIDTH 660 0
DWIDTH 11 0
BBX 8 15 2 2
BITMAP
14
00
39
00
80
00
80
80
4E
80
80
00
80
80
78
ENDCHAR
STARTCHAR 00EB
ENCODING 235
SWIDTH 660 0
DWIDTH 11 0
BBX 8 17 2 0
BITMAP
12
00
00
00
39
00
80
00
80
80
4E
80
80
00
80
80
78
ENDCHAR
STARTCHAR 00EC
ENCODING 236
SWIDTH 660 0
DWIDTH 11 0
BBX 7 17 2 0
BITMAP
10
00
08
00
4E
00
00
00
10
10
10
10
10
00
10
10
9C
ENDCHAR
STARTCHAR 00ED
ENCODING 237
SWIDTH 660 0
DWIDTH 11 0
BBX 7 17 2 0
BITMAP
04
00
08
00
4E
00
00
00
10
10
10
10
10
00
10
10
9C
ENDCHAR
STARTCHAR 00EE
ENCODING 238
SWIDTH 660 0
DWIDTH 11 0
BBX 7 17 2 0
BITMAP
08
00
14
00
4E
00
00
00
10
10
10
10
10
00
10
10
9C
ENDCHAR
STARTCHAR 00EF
ENCODING 239
SWIDTH 660 0
DWIDTH 11 0
BBX 7 17 2 0
BITMAP
14
00
00
00
4E
00
00
00
10
10
10
10
10
00
10
10
9C
ENDCHAR
STARTCHAR 00F0
ENCODING 240
SWIDTH 660 0
DWIDTH 11 0
BBX 8 13 2 0
BITMAP
78
11
10
00
10
9A
00
02
22
00
22
22
F0
ENDCHAR
STARTCHAR 00F1
ENCODING 241
SWIDTH 660 0
DWIDTH 11 0
BBX 9 16 1 1
BITMAP
0500
0000
0200
0000
0000
6080
4080
0000
5080
5080
0000
0480
0000
8000
8200
8300
ENDCHAR
STARTCHAR 00F2
ENCODING 242
SWIDTH 660 0
DWIDTH 11 0
BBX 9 17 1 0
BITMAP
0800
0000
0400
0000
2700
4080
4080
0000
4080
4080
0000
0080
8000
0000
8000
8100
6E00
ENDCHAR
STARTCHAR 00F3
ENCODING 243
SWIDTH 660 0
DWIDTH 11 0
BBX 9 17 1 0
BITMAP
0200
0000
0400
0000
2700
4080
4080
0000
4080
4080
0000
0080
8000
0000
8000
8100
6E00
ENDCHAR
STARTCHAR 00F4
ENCODING 244
SWIDTH 660 0
DWIDTH 11 0
BBX 9 17 1 0
BITMAP
0400
0000
0A00
0000
2700
4080
4080
0000
4080
4080
0000
0080
8000
0000
8000
8100
6E00
ENDCHAR
STARTCHAR 00F5
ENCODING 245
SWIDTH 660 0
DWIDTH 11 0
BBX 9 17 1 0
BITMAP
0500
0000
0A00
0000
2700
4080
4080
0000
4080
4080
0000
0080
8000
0000
8000
8100
6E00
ENDCHAR
STARTCHAR 00F6
ENCODING 246
SWIDTH 660 0
DWIDTH 11 0
BBX 9 17 1 0
BITMAP
0A00
0000
0000
0000
2700
4080
4080
0000
4080
4080
0000
0080
8000
0000
8000
8100
6E00
ENDCHAR
STARTCHAR 00F8
ENCODING 248
SWIDTH 660 0
DWIDTH 11 0
BBX 9 13 1 0
BITMAP
2700
4180
4080
0000
4280
4080
0000
1080
A000
0000
A000
C100
6E00
ENDCHAR
STARTCHAR 00F9
ENCODING 249
SWIDTH 660 0
DWIDTH 11 0
BBX 9 17 1 0
BITMAP
0800
0000
0400
0000
0000
4080
4080
0000
4080
4080
0000
0080
8000
0000
8000
8100
6E00
ENDCHAR
STARTCHAR 00FA
ENCODING 250
SWIDTH 660 0
DWIDTH 11 0
BBX 9 17 1 0
BITMAP
0200
0000
0400
0000
0000
4080
4080
0000
4080
4080
0000
0080
8000
0000
8000
8100
6E00
ENDCHAR
STARTCHAR 00FB
ENCODING 251
SWIDTH 660 0
DWIDTH 11 0
BBX 9 17 1 0
BITMAP
0400
0000
0A00
0000
0000
4080
4080
0000
4080
4080
0000
0080
8000
0000
8000
8100
6E00
ENDCHAR
STARTCHAR 00FC
ENCODING 252
SWIDTH 660 0
DWIDTH 11 0
BBX 9 17 1 0
BITMAP
0A00
0000
0000
0000
0000
4080
4080
0000
4080
4080
0000
0080
8000
0000
8000
8100
6E00
ENDCHAR
STARTCHAR 00FD
ENCODING 253
SWIDTH 660 0
DWIDTH 11 0
BBX 9 17 1 0
BITMAP
0200
0000
0400
0000
0000
4080
0080
0000
0080
8080
1E00
0100
0100
0000
0100
0100
7200
ENDCHAR
STARTCHAR 00FE
ENCODING 254
SWIDTH 660 0
DWIDTH 11 0
BBX 9 11 1 1
BITMAP
4000
7300
0000
4080
4080
0080
0080
0000
BC00
8000
8000
ENDCHAR
STARTCHAR 00FF
ENCODING 255
SWIDTH 660 0
DWIDTH 11 0
BBX 9 17 1 0
BITMAP
0A00
0000
0000
0000
0000
4080
0080
0000
0080
8080
1E00
0100
0100
0000
0100
0100
7200
ENDCHAR
STARTCHAR 0131
ENCODING 305
SWIDTH 660 0
DWIDTH 11 0
BBX 7 13 2 0
BITMAP
4E
00
00
00
10
10
10
10
10
00
10
10
9C
ENDCHAR
STARTCHAR 0141
ENCODING 321
SWIDTH 660 0
DWIDTH 11 0
BBX 7 12 2 0
BITMAP
40
40
00
40
70
00
00
80
00
80
80
4E
ENDCHAR
STARTCHAR 0142
ENCODING 322
SWIDTH 660 0
DWIDTH 11 0
BBX 7 12 2 0
BITMAP
40
40
00
40
70
00
00
80
00
80
80
4E
ENDCHAR
STARTCHAR 0152
ENCODING 338
SWIDTH 660 0
DWIDTH 11 0
BBX 10 13 1 0
BITMAP
18C0
8400
8400
0000
8400
8400
0380
8000
8000
0000
0800
0800
3180
ENDCHAR
STARTCHAR 0153
ENCODING 339
SWIDTH 660 0
DWIDTH 11 0
BBX 10 13 1 0
BITMAP
18C0
8400
8400
0000
8400
8400
0380
8000
8000
0000
0800
0800
3180
ENDCHAR
STARTCHAR 0160
ENCODING 352
SWIDTH 660 0
DWIDTH 11 0
BBX 8 16 2 0
BITMAP
14
08
00
4E
80
80
00
80
80
78
01
00
00
00
02
DC
ENDCHAR
STARTCHAR 0161
ENCODING 353
SWIDTH 660 0
DWIDTH 11 0
BBX 8 16 2 0
BITMAP
14
08
00
4E
80
80
00
80
80
78
01
00
00
00
02
DC
ENDCHAR
STARTCHAR 0178
ENCODING 376
SWIDTH 660 0
DWIDTH 11 0
BBX 9 17 1 0
BITMAP
0A00
0000
0000
0000
0000
4080
0080
0000
0080
8080
1E00
0100
0100
0000
0100
0100
7200
ENDCHAR
STARTCHAR 017D
ENCODING 381
SWIDTH 660 0
DWIDTH 11 0
BBX 7 16 2 0
BITMAP
14
08
00
4E
02
00
00
04
00
00
20
40
00
40
80
9C
ENDCHAR
STARTCHAR 017E
ENCODING 382
SWIDTH 660 0
DWIDTH 11 0
BBX 7 16 2 0
BITMAP
14
08
00
4E
02
00
00
04
00
00
20
40
00
40
80
9C
ENDCHAR
STARTCHAR 02C6
ENCODING 710
SWIDTH 660 0
DWIDTH 11 0
BBX 3 2 4 14
BITMAP
40
A0
ENDCHAR
STARTCHAR 02C7
ENCODING 711
SWIDTH 660 0
DWIDTH 11 0
BBX 3 2 4 14
BITMAP
A0
40
ENDCHAR
STARTCHAR 02DA
ENCODING 730
SWIDTH 660 0
DWIDTH 11 0
BBX 3 3 4 14
BITMAP
40
A0
40
ENDCHAR
STARTCHAR 02DC
ENCODING 732
SWIDTH 660 0
DWIDTH 11 0
BBX 3 1 5 14
BITMAP
A0
ENDCHAR
STARTCHAR 2013
ENCODING 8211
SWIDTH 660 0
DWIDTH 11 0
BBX 4 1 3 6
BITMAP
F0
ENDCHAR
STARTCHAR 2014
ENCODING 8212
SWIDTH 660 0
DWIDTH 11 0
BBX 4 1 3 6
BITMAP
F0
ENDCHAR
STARTCHAR 2018
ENCODING 8216
SWIDTH 660 0
DWIDTH 11 0
BBX 2 5 4 7
BITMAP
80
00
80
40
40
ENDCHAR
STARTCHAR 2019
ENCODING 8217
SWIDTH 660 0
DWIDTH 11 0
BBX 1 2 5 10
BITMAP
80
80
ENDCHAR
STARTCHAR 201A
ENCODING 8218
SWIDTH 660 0
DWIDTH 11 0
BBX 2 5 4 -2
BITMAP
40
00
40
80
80
ENDCHAR
STARTCHAR 201C
ENCODING 8220
SWIDTH 660 0
DWIDTH 11 0
BBX 2 5 2 7
BITMAP
80
00
80
40
40
ENDCHAR
STARTCHAR 201D
ENCODING 8221
SWIDTH 660 0
DWIDTH 11 0
BBX 8 5 2 7
BITMAP
01
00
41
84
84
ENDCHAR
STARTCHAR 201E
ENCODING 8222
SWIDTH 660 0
DWIDTH 11 0
BBX 8 5 1 -2
BITMAP
21
00
21
82
80
ENDCHAR
STARTCHAR 2026
ENCODING 8230
SWIDTH 660 0
DWIDTH 11 0
BBX 9 1 1 -1
BITMAP
8880
ENDCHAR
STARTCHAR 2039
ENCODING 8249
SWIDTH 660 0
DWIDTH 11 0
BBX 3 11 4 1
BITMAP
20
00
00
40
00
00
80
00
00
40
40
ENDCHAR
STARTCHAR 203A
ENCODING 8250
SWIDTH 660 0
DWIDTH 11 0
BBX 3 11 4 1
BITMAP
40
00
00
20
20
00
20
00
40
40
80
ENDCHAR
STARTCHAR 2044
ENCODING 8260
SWIDTH 660 0
DWIDTH 11 0
BBX 7 11 2 1
BITMAP
02
00
00
04
00
00
20
00
40
40
80
ENDCHAR
STARTCHAR 20AC
ENCODING 8364
SWIDTH 660 0
DWIDTH 11 0
BBX 9 13 1 0
BITMAP
1C80
0000
4000
0000
CC00
4000
0000
4000
4000
0000
7000
4000
3C00
ENDCHAR
STARTCHAR 2122
ENCODING 8482
SWIDTH 960 0
DWIDTH 16 0
BBX 13 6 2 7
BITMAP
F000
4618
4408
0000
0528
0508
ENDCHAR
ENDFONT
